<svg version="1.1" id="Layer_1" xmlns="http://www.w3.org/2000/svg" xmlns:xlink="http://www.w3.org/1999/xlink" x="0px" y="0px"
	 width="100%" viewBox="0 0 483 483" filter="invert(100%)" enable-background="new 0 0 483 483" xml:space="preserve">
<path fill="#F6F6F6" opacity="1.000000" stroke="none" 
	d="
M215.000000,1.000000 
	C233.020889,1.000000 251.041794,1.000000 269.214783,1.359195 
	C270.212585,2.105312 271.023071,2.691420 271.909454,2.848110 
	C280.084564,4.293296 288.399689,5.150702 296.437469,7.136644 
	C372.424011,25.911015 427.529144,70.670319 461.624817,141.056763 
	C472.558075,163.627182 479.097778,187.622482 482.145752,212.548294 
	C482.253326,213.427963 483.359344,214.185532 484.000000,215.000000 
	C484.000000,233.020889 484.000000,251.041794 483.640686,269.214905 
	C482.895172,270.213013 482.311340,271.023773 482.153625,271.910339 
	C480.728333,279.920471 479.853088,288.059692 477.931396,295.945343 
	C459.344086,372.218658 414.473450,427.416382 343.939941,461.622284 
	C321.377075,472.564362 297.384827,479.121643 272.449402,482.127228 
	C271.570465,482.233154 270.813721,483.352814 270.000000,484.000000 
	C251.979111,484.000000 233.958206,484.000000 215.785034,483.640717 
	C214.786804,482.895233 213.975998,482.311371 213.089386,482.153656 
	C205.079010,480.728973 196.939072,479.855774 189.053635,477.932983 
	C112.984383,459.384155 57.839520,414.707611 23.600492,344.384491 
	C12.543639,321.674896 5.932878,297.541962 2.858977,272.449829 
	C2.751254,271.570496 1.642299,270.813843 0.999999,270.000000 
	C1.000000,251.979111 1.000000,233.958206 1.359197,215.785217 
	C2.105945,214.787491 2.693269,213.977188 2.849912,213.090759 
	C4.294660,204.915329 5.149935,196.599411 7.137001,188.561768 
	C25.872078,112.778816 70.436134,57.724026 140.613602,23.598194 
	C163.328949,12.552197 187.457825,5.934213 212.549454,2.857790 
	C213.429001,2.749951 214.185928,1.641881 215.000000,1.000000 
M385.589111,60.893440 
	C346.042206,30.067034 301.192017,13.065030 251.129562,11.356556 
	C187.311142,9.178635 130.973679,29.339115 84.438301,73.206757 
	C26.464676,127.856934 2.660041,195.763046 12.434145,274.715424 
	C18.341799,322.435730 38.108761,364.556976 71.240883,399.497650 
	C130.133347,461.604828 202.490906,485.353882 286.606781,470.303864 
	C338.996033,460.930420 382.834808,434.830475 417.392883,394.353088 
	C462.671112,341.319336 480.826752,279.581116 471.429932,210.588226 
	C463.136719,149.698166 433.757202,100.126900 385.589111,60.893440 
z"/>
<path fill="#010101" opacity="1.000000" stroke="none" 
	d="
M214.531342,1.000000 
	C214.185928,1.641881 213.429001,2.749951 212.549454,2.857790 
	C187.457825,5.934213 163.328949,12.552197 140.613602,23.598194 
	C70.436134,57.724026 25.872078,112.778816 7.137001,188.561768 
	C5.149935,196.599411 4.294660,204.915329 2.849912,213.090759 
	C2.693269,213.977188 2.105945,214.787491 1.359197,215.316559 
	C1.000000,143.739624 1.000000,72.479256 1.000000,1.000000 
	C72.020744,1.000000 143.041718,1.000000 214.531342,1.000000 
z"/>
<path fill="#010101" opacity="1.000000" stroke="none" 
	d="
M484.000000,214.531342 
	C483.359344,214.185532 482.253326,213.427963 482.145752,212.548294 
	C479.097778,187.622482 472.558075,163.627182 461.624817,141.056763 
	C427.529144,70.670319 372.424011,25.911015 296.437469,7.136644 
	C288.399689,5.150702 280.084564,4.293296 271.909454,2.848110 
	C271.023071,2.691420 270.212585,2.105312 269.683472,1.359195 
	C341.260376,1.000000 412.520721,1.000000 484.000000,1.000000 
	C484.000000,72.020744 484.000000,143.041718 484.000000,214.531342 
z"/>
<path fill="#010101" opacity="1.000000" stroke="none" 
	d="
M0.999999,270.468658 
	C1.642299,270.813843 2.751254,271.570496 2.858977,272.449829 
	C5.932878,297.541962 12.543639,321.674896 23.600492,344.384491 
	C57.839520,414.707611 112.984383,459.384155 189.053635,477.932983 
	C196.939072,479.855774 205.079010,480.728973 213.089386,482.153656 
	C213.975998,482.311371 214.786804,482.895233 215.316376,483.640717 
	C143.739639,484.000000 72.479271,484.000000 1.000000,484.000000 
	C1.000000,412.979248 1.000000,341.958282 0.999999,270.468658 
z"/>
<path fill="#010101" opacity="1.000000" stroke="none" 
	d="
M270.468658,484.000000 
	C270.813721,483.352814 271.570465,482.233154 272.449402,482.127228 
	C297.384827,479.121643 321.377075,472.564362 343.939941,461.622284 
	C414.473450,427.416382 459.344086,372.218658 477.931396,295.945343 
	C479.853088,288.059692 480.728333,279.920471 482.153625,271.910339 
	C482.311340,271.023773 482.895172,270.213013 483.640686,269.683563 
	C484.000000,341.260376 484.000000,412.520721 484.000000,484.000000 
	C412.979248,484.000000 341.958282,484.000000 270.468658,484.000000 
z"/>
<path fill="#040404" opacity="1.000000" stroke="none" 
	d="
M385.867096,61.115265 
	C433.757202,100.126900 463.136719,149.698166 471.429932,210.588226 
	C480.826752,279.581116 462.671112,341.319336 417.392883,394.353088 
	C382.834808,434.830475 338.996033,460.930420 286.606781,470.303864 
	C202.490906,485.353882 130.133347,461.604828 71.240883,399.497650 
	C38.108761,364.556976 18.341799,322.435730 12.434145,274.715424 
	C2.660041,195.763046 26.464676,127.856934 84.438301,73.206757 
	C130.973679,29.339115 187.311142,9.178635 251.129562,11.356556 
	C301.192017,13.065030 346.042206,30.067034 385.867096,61.115265 
M138.041290,81.012924 
	C134.598648,83.402740 131.023865,85.624199 127.732948,88.207306 
	C66.460342,136.301453 40.234489,199.228516 52.536686,276.010712 
	C69.211563,380.084320 170.108170,450.527679 274.218048,432.858002 
	C380.045959,414.896698 451.008820,313.588531 430.998840,207.733887 
	C419.124878,144.919724 383.379303,99.161079 326.617737,70.237755 
	C289.543579,51.346310 249.957855,46.417637 209.049728,53.273220 
	C186.455460,57.059681 165.035797,64.555374 144.809143,76.862450 
	C142.776123,78.199646 140.743103,79.536835 138.041290,81.012924 
z"/>
<path fill="#FDFDFD" opacity="1.000000" stroke="none" 
	d="
M145.462753,76.778595 
	C165.035797,64.555374 186.455460,57.059681 209.049728,53.273220 
	C249.957855,46.417637 289.543579,51.346310 326.617737,70.237755 
	C383.379303,99.161079 419.124878,144.919724 430.998840,207.733887 
	C451.008820,313.588531 380.045959,414.896698 274.218048,432.858002 
	C170.108170,450.527679 69.211563,380.084320 52.536686,276.010712 
	C40.234489,199.228516 66.460342,136.301453 127.732948,88.207306 
	C131.023865,85.624199 134.598648,83.402740 138.760681,80.992599 
	C140.433365,81.213837 141.377884,81.604477 142.342026,81.661087 
	C143.695618,81.740578 145.063812,81.571808 146.425751,81.509224 
	C146.104752,79.932350 145.783752,78.355469 145.462753,76.778595 
M252.137802,254.499939 
	C252.147736,267.996948 251.825943,281.504150 252.241257,294.988678 
	C252.959473,318.307678 264.776886,333.446014 286.254578,335.234528 
	C304.237854,336.732086 322.635101,336.449829 340.573151,334.463806 
	C361.437714,332.153748 375.661682,319.004944 378.310059,300.796112 
	C379.967957,289.397339 379.748230,277.440247 378.400574,265.965057 
	C376.874603,252.971283 369.829163,242.777802 357.025604,237.590027 
	C354.701660,236.648407 352.419830,235.602890 349.897461,234.509506 
	C351.975861,232.878632 353.574005,231.071274 355.579224,230.148605 
	C363.508759,226.499969 368.444855,220.271088 369.811798,211.967194 
	C371.045319,204.473846 371.118317,196.744263 371.181488,189.114548 
	C371.266174,178.883392 366.919128,170.439865 359.441772,163.601242 
	C348.634796,153.717453 335.338715,150.363007 321.249664,150.132004 
	C299.259583,149.771423 277.259735,150.004959 255.264008,150.002762 
	C254.327011,150.002670 253.389999,150.162994 252.137802,150.277374 
	C252.137802,184.905212 252.137802,219.202576 252.137802,254.499939 
M202.500259,149.913788 
	C196.044983,149.913788 189.589706,149.913788 182.653046,149.913788 
	C182.653046,175.352524 182.653046,200.418839 182.653046,225.720596 
	C171.088058,225.720596 160.011215,225.720596 148.441833,225.720596 
	C148.441833,200.467499 148.441833,175.399963 148.441833,150.175629 
	C133.540573,150.175629 119.132233,150.175629 104.829369,150.175629 
	C104.829369,212.181992 104.829369,273.923370 104.829369,335.676544 
	C119.467850,335.676544 133.840958,335.676544 148.617065,335.676544 
	C148.617065,306.710571 148.617065,278.116821 148.617065,249.486389 
	C160.098434,249.486389 171.168045,249.486389 182.645813,249.486389 
	C182.645813,278.383606 182.645813,306.971161 182.645813,335.756866 
	C197.431931,335.756866 211.803879,335.756866 226.253006,335.756866 
	C226.253006,273.704315 226.253006,211.950684 226.253006,149.913788 
	C218.472168,149.913788 210.986130,149.913788 202.500259,149.913788 
z"/>
<path fill="#ECECEC" opacity="1.000000" stroke="none" 
	d="
M145.135956,76.820526 
	C145.783752,78.355469 146.104752,79.932350 146.425751,81.509224 
	C145.063812,81.571808 143.695618,81.740578 142.342026,81.661087 
	C141.377884,81.604477 140.433365,81.213837 139.095093,80.923141 
	C140.743103,79.536835 142.776123,78.199646 145.135956,76.820526 
z"/>
<path fill="#030303" opacity="1.000000" stroke="none" 
	d="
M252.137802,253.999939 
	C252.137802,219.202576 252.137802,184.905212 252.137802,150.277374 
	C253.389999,150.162994 254.327011,150.002670 255.264008,150.002762 
	C277.259735,150.004959 299.259583,149.771423 321.249664,150.132004 
	C335.338715,150.363007 348.634796,153.717453 359.441772,163.601242 
	C366.919128,170.439865 371.266174,178.883392 371.181488,189.114548 
	C371.118317,196.744263 371.045319,204.473846 369.811798,211.967194 
	C368.444855,220.271088 363.508759,226.499969 355.579224,230.148605 
	C353.574005,231.071274 351.975861,232.878632 349.897461,234.509506 
	C352.419830,235.602890 354.701660,236.648407 357.025604,237.590027 
	C369.829163,242.777802 376.874603,252.971283 378.400574,265.965057 
	C379.748230,277.440247 379.967957,289.397339 378.310059,300.796112 
	C375.661682,319.004944 361.437714,332.153748 340.573151,334.463806 
	C322.635101,336.449829 304.237854,336.732086 286.254578,335.234528 
	C264.776886,333.446014 252.959473,318.307678 252.241257,294.988678 
	C251.825943,281.504150 252.147736,267.996948 252.137802,253.999939 
M322.364471,313.246765 
	C330.089355,311.472961 334.222260,305.860107 334.728119,298.723328 
	C335.524811,287.482666 335.730621,276.075012 334.722931,264.869720 
	C333.862244,255.299057 327.722290,248.564697 317.921570,246.961945 
	C310.825653,245.801514 303.498383,246.055893 296.103333,245.670425 
	C296.103333,262.687561 295.684174,278.831390 296.243774,294.941223 
	C296.648743,306.599243 302.296051,312.939636 311.618927,313.841187 
	C314.881226,314.156647 318.230225,313.575775 322.364471,313.246765 
M327.078278,209.359634 
	C327.080414,202.227844 327.617767,195.044556 326.937561,187.978439 
	C326.224792,180.574097 322.394775,174.249802 314.677551,172.795471 
	C308.674408,171.664169 302.287476,172.569214 296.157104,172.569214 
	C296.157104,190.494095 296.157104,208.252960 296.157104,225.995285 
	C314.048676,227.231674 322.032379,227.689331 327.078278,209.359634 
z"/>
<path fill="#030303" opacity="1.000000" stroke="none" 
	d="
M203.000183,149.913788 
	C210.986130,149.913788 218.472168,149.913788 226.253006,149.913788 
	C226.253006,211.950684 226.253006,273.704315 226.253006,335.756866 
	C211.803879,335.756866 197.431931,335.756866 182.645813,335.756866 
	C182.645813,306.971161 182.645813,278.383606 182.645813,249.486389 
	C171.168045,249.486389 160.098434,249.486389 148.617065,249.486389 
	C148.617065,278.116821 148.617065,306.710571 148.617065,335.676544 
	C133.840958,335.676544 119.467850,335.676544 104.829369,335.676544 
	C104.829369,273.923370 104.829369,212.181992 104.829369,150.175629 
	C119.132233,150.175629 133.540573,150.175629 148.441833,150.175629 
	C148.441833,175.399963 148.441833,200.467499 148.441833,225.720596 
	C160.011215,225.720596 171.088058,225.720596 182.653046,225.720596 
	C182.653046,200.418839 182.653046,175.352524 182.653046,149.913788 
	C189.589706,149.913788 196.044983,149.913788 203.000183,149.913788 
z"/>
<path fill="#FBFBFB" opacity="1.000000" stroke="none" 
	d="
M321.952026,313.325500 
	C318.230225,313.575775 314.881226,314.156647 311.618927,313.841187 
	C302.296051,312.939636 296.648743,306.599243 296.243774,294.941223 
	C295.684174,278.831390 296.103333,262.687561 296.103333,245.670425 
	C303.498383,246.055893 310.825653,245.801514 317.921570,246.961945 
	C327.722290,248.564697 333.862244,255.299057 334.722931,264.869720 
	C335.730621,276.075012 335.524811,287.482666 334.728119,298.723328 
	C334.222260,305.860107 330.089355,311.472961 321.952026,313.325500 
z"/>
<path fill="#FBFBFB" opacity="1.000000" stroke="none" 
	d="
M327.026428,209.777359 
	C322.032379,227.689331 314.048676,227.231674 296.157104,225.995285 
	C296.157104,208.252960 296.157104,190.494095 296.157104,172.569214 
	C302.287476,172.569214 308.674408,171.664169 314.677551,172.795471 
	C322.394775,174.249802 326.224792,180.574097 326.937561,187.978439 
	C327.617767,195.044556 327.080414,202.227844 327.026428,209.777359 
z"/>
</svg>